<svg xmlns="http://www.w3.org/2000/svg" version="1.1" xmlns:xlink="http://www.w3.org/1999/xlink" xmlns:svgjs="http://svgjs.com/svgjs" height="107.18499221801757" width="329.2999969482422"><defs id="SvgjsDefs1923"></defs><g id="SvgjsG1924" rel="mainfill" name="main_text" xmlns:name="main_text" transform="translate(118.65999994277955,-167.70250968933107)" fill="#ffffff"><path d="M25.02 203.55Q35.97 203.55 41.81 208.02Q47.64 212.50 47.64 221.21Q47.64 230.25 41.57 235.12Q35.49 240 25.66 240L3.44 240L3.44 184.36L40.85 184.36L39.25 196.59L19.90 196.59L19.90 203.55L25.02 203.55M23.50 228.41Q27.02 228.41 28.78 226.53Q30.54 224.65 30.54 221.37Q30.54 214.58 23.18 214.58L19.90 214.58L19.90 228.41L23.50 228.41ZM79.22 239.92Q76.50 248.79 69.95 253.35Q63.39 257.91 52.68 258.23L51.00 247.43Q57.16 246.79 60.15 245.20Q63.15 243.60 64.83 240L59.39 240L47.24 197.31L64.03 197.31L69.39 230.33L76.02 197.31L92.33 197.31L79.22 239.92ZM94.49 197.31L126.78 197.31L124.94 209.06L110.32 209.06L110.32 240L94.49 240L94.49 197.31ZM166.27 226.17Q166.27 228.41 166.83 229.49Q167.39 230.57 168.83 231.13L165.63 241.28Q161.32 240.96 158.60 239.64Q155.88 238.32 154.12 235.36Q149.97 241.60 141.25 241.60Q134.94 241.60 131.06 237.80Q127.18 234.00 127.18 228.01Q127.18 220.89 132.46 217.14Q137.74 213.38 147.81 213.38L150.85 213.38L150.85 212.34Q150.85 209.14 149.57 208.02Q148.29 206.91 144.69 206.91Q142.77 206.91 139.77 207.50Q136.78 208.10 133.66 209.14L130.22 199.07Q134.14 197.47 138.73 196.59Q143.33 195.71 147.09 195.71Q157.16 195.71 161.72 199.59Q166.27 203.47 166.27 211.46L166.27 226.17M146.13 230.49Q147.57 230.49 148.81 229.77Q150.05 229.05 150.85 227.93L150.85 221.61L149.17 221.61Q145.81 221.61 144.21 222.81Q142.61 224.01 142.61 226.49Q142.61 228.33 143.57 229.41Q144.53 230.49 146.13 230.49ZM210.64 240L194.81 240L194.81 225.21Q192.49 226.89 189.58 227.85Q186.66 228.81 183.38 228.81Q177.22 228.81 174.23 225.21Q171.23 221.61 171.23 215.22L171.23 197.31L187.06 197.31L187.06 213.14Q187.06 215.46 187.82 216.38Q188.58 217.30 189.94 217.30Q192.57 217.30 194.81 215.62L194.81 197.31L210.64 197.31L210.64 240Z" fill="#ffffff" style="fill: rgb(255, 255, 255);"></path></g><g id="SvgjsG1925" rel="mainfill" name="symbol" xmlns:name="symbol_mainfill" transform="translate(-0.8499999999999858,-0.85) scale(0.85)" fill="#ffffff"><g fill="#ffffff"><path fill="#ffffff" d="M104.1,106.6l4.8-9.7H127c-3.4-6.4-10.1-10.7-17.8-10.7c-0.5,0-1,0-1.4,0.1c-6.4,0.4-11.9,3.8-15.3,8.8   H35.6c-3.4-5-8.9-8.4-15.3-8.8c-0.5,0-0.9-0.1-1.4-0.1C11.1,86.2,4.4,90.6,1,97h18.1l4.8,9.7l-4.8,9.7H1   c3.4,6.4,10.1,10.7,17.8,10.7c6.9,0,13.1-3.5,16.7-8.9h56.9c3.6,5.4,9.8,8.9,16.7,8.9c7.7,0,14.4-4.3,17.8-10.7h-18.1L104.1,106.6z   " style="fill: rgb(255, 255, 255);"></path><path fill="#ffffff" d="M18.3,65.5c1.2,5.6,3.4,11.1,6.6,16.1l-0.2,0.2c5.2,1.2,9.9,4.1,13.4,8.2h51.8c3.5-4.1,8.2-7,13.4-8.2   l-0.2-0.2c3.2-5,5.4-10.5,6.6-16.1l8.8,0l0-19.3h-8.8c-1.2-5.6-3.4-11.1-6.6-16.1l6.2-6.3L95.8,10.3l-6.2,6.3   c-5-3.3-10.4-5.5-16-6.7l0-8.9L54.4,1l0,8.9c-5.6,1.2-11,3.4-16,6.7l-6.2-6.3L18.7,23.9l6.2,6.3c-3.2,5-5.4,10.5-6.6,16.1H9.5   l0,19.3L18.3,65.5z M64,32.4c12.9,0,23.3,10.5,23.3,23.5c0,13-10.4,23.5-23.3,23.5c-12.9,0-23.3-10.5-23.3-23.5   C40.7,42.9,51.1,32.4,64,32.4z" style="fill: rgb(255, 255, 255);"></path></g></g></svg>